<svg width="517" height="517" viewBox="0 0 517 517" fill="none" xmlns="http://www.w3.org/2000/svg">
<path d="M473.917 64.625H43.0833C19.6029 65.4867 0.861667 84.2279 0 107.708V409.292C0.861667 432.772 19.6029 451.513 43.0833 452.375H473.917C497.397 451.513 516.138 432.772 517 409.292V107.708C516.604 96.4081 511.937 85.6786 503.942 77.6832C495.946 69.6879 485.217 65.0215 473.917 64.625ZM473.917 409.292H43.0833V107.708H473.917V409.292ZM301.583 366.208V339.281C301.583 303.522 229.634 285.427 193.875 285.427C158.116 285.427 86.1667 303.522 86.1667 339.281V366.208H301.583ZM193.875 150.792C179.592 150.792 165.894 156.466 155.794 166.565C145.695 176.665 140.021 190.363 140.021 204.646C140.021 211.718 141.414 218.721 144.12 225.255C146.827 231.789 150.794 237.726 155.794 242.726C165.894 252.826 179.592 258.5 193.875 258.5C200.947 258.5 207.95 257.107 214.484 254.401C221.018 251.694 226.955 247.727 231.956 242.726C236.956 237.726 240.923 231.789 243.63 225.255C246.336 218.721 247.729 211.718 247.729 204.646C247.729 197.574 246.336 190.571 243.63 184.037C240.923 177.503 236.956 171.566 231.956 166.565C226.955 161.564 221.018 157.597 214.484 154.891C207.95 152.185 200.947 150.792 193.875 150.792ZM301.583 150.792V172.333H430.833V150.792H301.583ZM301.583 193.875V215.417H430.833V193.875H301.583ZM301.583 236.958V258.5H387.75V236.958H301.583Z" fill="#FFFF2B"/>
</svg>
